<svg width="12" height="14" viewBox="0 0 12 14" fill="none" xmlns="http://www.w3.org/2000/svg">
<path d="M8.59848 9.0375C8.9766 8.83438 9.40941 8.71875 9.87035 8.71875H9.87191C9.91879 8.71875 9.94066 8.6625 9.90629 8.63125C9.42694 8.20106 8.87936 7.85361 8.28598 7.60312C8.27973 7.6 8.27348 7.59844 8.26723 7.59531C9.23754 6.89062 9.86879 5.74531 9.86879 4.45312C9.86879 2.3125 8.13754 0.578125 6.0016 0.578125C3.86566 0.578125 2.13598 2.3125 2.13598 4.45312C2.13598 5.74531 2.76723 6.89062 3.7391 7.59531C3.73285 7.59844 3.7266 7.6 3.72035 7.60312C3.02191 7.89844 2.39535 8.32188 1.85629 8.8625C1.32034 9.39748 0.893654 10.0317 0.600039 10.7297C0.311153 11.4132 0.155245 12.1456 0.140664 12.8875C0.140247 12.9042 0.143172 12.9208 0.149267 12.9363C0.155362 12.9518 0.164503 12.966 0.176152 12.9779C0.187801 12.9899 0.201723 12.9993 0.217096 13.0058C0.232469 13.0123 0.248983 13.0156 0.265664 13.0156H1.2016C1.26879 13.0156 1.32504 12.9609 1.3266 12.8938C1.35785 11.6875 1.84066 10.5578 2.69535 9.70156C3.57816 8.81563 4.75316 8.32812 6.00316 8.32812C6.8891 8.32812 7.7391 8.57344 8.47191 9.03281C8.49074 9.04464 8.51235 9.0513 8.53457 9.05213C8.55678 9.05295 8.57883 9.0479 8.59848 9.0375ZM6.00316 7.14062C5.28754 7.14062 4.6141 6.86094 4.10629 6.35313C3.85644 6.10392 3.65836 5.80774 3.52348 5.48165C3.38859 5.15557 3.31956 4.80601 3.32035 4.45312C3.32035 3.73594 3.60004 3.06094 4.10629 2.55312C4.61254 2.04531 5.28598 1.76562 6.00316 1.76562C6.72035 1.76562 7.39223 2.04531 7.90004 2.55312C8.14989 2.80233 8.34796 3.09851 8.48285 3.4246C8.61774 3.75068 8.68677 4.10024 8.68598 4.45312C8.68598 5.17031 8.40629 5.84531 7.90004 6.35313C7.39223 6.86094 6.71879 7.14062 6.00316 7.14062ZM11.75 10.8594H10.4375V9.54688C10.4375 9.47812 10.3813 9.42188 10.3125 9.42188H9.43754C9.36879 9.42188 9.31254 9.47812 9.31254 9.54688V10.8594H8.00004C7.93129 10.8594 7.87504 10.9156 7.87504 10.9844V11.8594C7.87504 11.9281 7.93129 11.9844 8.00004 11.9844H9.31254V13.2969C9.31254 13.3656 9.36879 13.4219 9.43754 13.4219H10.3125C10.3813 13.4219 10.4375 13.3656 10.4375 13.2969V11.9844H11.75C11.8188 11.9844 11.875 11.9281 11.875 11.8594V10.9844C11.875 10.9156 11.8188 10.8594 11.75 10.8594Z" fill="white"/>
</svg>
