<svg width="18" height="18" viewBox="0 0 18 18" fill="none" xmlns="http://www.w3.org/2000/svg">
<path d="M3.375 16.875H14.625V14.0625C14.6238 13.0186 14.2086 12.0177 13.4704 11.2796C12.7323 10.5414 11.7314 10.1262 10.6875 10.125H7.3125C6.26858 10.1262 5.26775 10.5414 4.52958 11.2796C3.79142 12.0177 3.37619 13.0186 3.375 14.0625V16.875Z" fill="#EFA999"/>
<path d="M5.0625 5.0625C5.0625 5.84126 5.29343 6.60254 5.72609 7.25006C6.15875 7.89758 6.7737 8.40225 7.49318 8.70027C8.21267 8.99829 9.00437 9.07627 9.76817 8.92434C10.532 8.77241 11.2336 8.3974 11.7842 7.84673C12.3349 7.29606 12.7099 6.59447 12.8618 5.83067C13.0138 5.06687 12.9358 4.27517 12.6378 3.55568C12.3398 2.8362 11.8351 2.22125 11.1876 1.78859C10.54 1.35593 9.77876 1.125 9 1.125C7.95571 1.125 6.95419 1.53984 6.21577 2.27827C5.47734 3.01669 5.0625 4.01821 5.0625 5.0625Z" fill="#EFA999"/>
</svg>
